{
  "title": "The Secret Daughter - S01E02 - Stuck In The Middle With You",
  "uid": 16004952,
  "size": 361969145,
  "categoryP": "video",
  "categoryS": "tv_shows",
  "magnet": "?xt=urn:btih:786d59308e8a4192f446d182bd680ba6c9375391&amp;dn=The+Secret+Daughter+-+S01E02+-+Stuck+In+The+Middle+With+You&amp;tr=udp%3A%2F%2Ftracker.leechers-paradise.org%3A6969&amp;tr=udp%3A%2F%2Fzer0day.ch%3A1337&amp;tr=udp%3A%2F%2Fopen.demonii.com%3A1337&amp;tr=udp%3A%2F%2Ftracker.coppersurfer.tk%3A6969&amp;tr=udp%3A%2F%2Fexodus.desync.com%3A6969",
  "seeders": 53,
  "leechers": 4,
  "uploader": "Bullrout",
  "files": 1,
  "time": 1476166699,
  "description": "The Secret Daughter - S01E02 - Stuck In The Middle With You\r\n\r\nBillie finds herself at the epicentre of a grieving family, wondering whether she can keep up the charade when she is given a DNA test to take.\r\n\r\nComplete name : The Secret Daughter - S01E02 - Stuck In The Middle With You.mp4\r\nFormat : MPEG-4\r\nFormat profile : Base Media / Version 2\r\nCodec ID : mp42 (mp42/isom/avc1)\r\nFile size : 345 MiB\r\nDuration : 43 min 12 s\r\nOverall bit rate mode : Variable\r\nOverall bit rate : 1 117 kb/s\r\n\r\nVideo\r\nID : 2\r\nFormat : AVC\r\nFormat/Info : Advanced Video Codec\r\nFormat profile :   \r\nFormat settings, CABAC : Yes\r\nFormat settings, ReFrames : 3 frames\r\nCodec ID : avc1\r\nCodec ID/Info : Advanced Video Coding\r\nDuration : 43 min 12 s\r\nBit rate mode : Variable\r\nBit rate : 985 kb/s\r\nMaximum bit rate : 1 000 kb/s\r\nWidth : 720 pixels\r\nHeight : 404 pixels\r\nDisplay aspect ratio : 16:9\r\nOriginal display aspect ratio : 16:9\r\nFrame rate mode : Constant\r\nFrame rate : 25.000 FPS\r\nStandard : PAL\r\nColor space : YUV\r\nChroma subsampling : 4:2:0\r\nBit depth : 8 bits\r\nScan type : Progressive\r\nBits/(Pixel*Frame) : 0.135\r\nStream size : 305 MiB (88%)\r\nWriting library : x264 core 112\r\nColor range : Limited\r\nColor primaries : BT.601 PAL\r\nTransfer characteristics : BT.470 System B, BT.470 System G\r\nMatrix coefficients : BT.601\r\n\r\nAudio\r\nID : 1\r\nFormat : AAC\r\nFormat/Info : Advanced Audio Codec\r\nFormat profile : LC\r\nCodec ID : 40\r\nDuration : 43 min 12 s\r\nBit rate mode : Variable\r\nBit rate : 128 kb/s\r\nMaximum bit rate : 576 kb/s\r\nChannel(s) : 2 channels\r\nChannel positions : Front: L R\r\nSampling rate : 48.0 kHz\r\nFrame rate : 46.875 FPS (1024 spf)\r\nCompression mode : Lossy\r\nStream size : 39.6 MiB (11%)",
  "parsed": {
    "xt": "urn:btih:786d59308e8a4192f446d182bd680ba6c9375391",
    "dn": "The Secret Daughter - S01E02 - Stuck In The Middle With You",
    "tr": [
      "udp://exodus.desync.com:6969",
      "udp://open.demonii.com:1337",
      "udp://tracker.coppersurfer.tk:6969",
      "udp://tracker.leechers-paradise.org:6969",
      "udp://zer0day.ch:1337"
    ],
    "infoHash": "786d59308e8a4192f446d182bd680ba6c9375391",
    "infoHashBuffer": {
      "type": "Buffer",
      "data": [
        120,
        109,
        89,
        48,
        142,
        138,
        65,
        146,
        244,
        70,
        209,
        130,
        189,
        104,
        11,
        166,
        201,
        55,
        83,
        145
      ]
    },
    "name": "The Secret Daughter - S01E02 - Stuck In The Middle With You",
    "announce": [
      "udp://exodus.desync.com:6969",
      "udp://open.demonii.com:1337",
      "udp://tracker.coppersurfer.tk:6969",
      "udp://tracker.leechers-paradise.org:6969",
      "udp://zer0day.ch:1337"
    ],
    "urlList": []
  },
  "previous": 58,
  "peers": 43,
  "last_updated": "2016-12-27T04:26:18.116Z"
}